<svg preserveAspectRatio="none" overflow="visible" style="display: block;" width="512" height="512" viewBox="0 0 512 512" fill="none" xmlns="http://www.w3.org/2000/svg">
<g id="1c">
<rect width="512" height="512" fill="#1D393B"/>
<g id="Vector">
<path d="M80.2169 190H98.7953V282.197C98.7953 308.589 86.9885 321.438 65.1111 321.438H39.7612C15.2794 321.438 0 306.506 0 275.599C0 244.693 15.2794 229.761 39.7612 229.761H80.2169V190ZM59.7286 303.554C74.4871 303.554 80.2169 296.956 80.2169 281.329V247.471H41.4975C25.6972 247.471 18.5784 255.806 18.5784 275.599C18.5784 295.393 25.6972 303.554 41.4975 303.554H59.7286Z" fill="#8BCF00"/>
<path d="M128.714 229.761H183.754C206.674 229.761 215.702 242.61 215.702 259.973V303.033C215.702 316.229 212.23 321.438 196.777 321.438H153.89C132.186 321.438 123.158 310.846 123.158 293.483C123.158 276.815 131.492 267.092 154.064 267.092H197.645V260.146C197.645 253.028 193.651 247.471 183.581 247.471H128.714V229.761ZM192.61 303.554C196.256 303.554 197.645 302.165 197.645 298.866V281.676H154.411C144.688 281.676 141.215 285.67 141.215 292.442C141.215 299.213 144.861 303.554 154.064 303.554H192.61Z" fill="#8BCF00"/>
<path d="M232.523 229.761H245.024V208.057H263.602V229.761H288.952V247.471H263.602V290.879C263.602 301.123 267.249 304.596 275.93 304.596H288.605V321.438H272.11C253.185 321.438 245.024 313.798 245.024 289.837V247.471H232.523V229.761Z" fill="#8BCF00"/>
<path d="M404.145 227.157L366.988 321.438H344.416L385.566 217.26C389.907 206.321 397.894 202.154 410.222 202.154C422.376 202.154 430.363 206.321 434.53 217.26L474.118 321.438H451.372L415.778 227.157C414.736 224.379 412.826 223.163 410.048 223.163C407.27 223.163 405.36 224.379 404.145 227.157Z" fill="#8BCF00"/>
<path d="M491.512 204.238H512V321.438H491.512V204.238Z" fill="#8BCF00"/>
<path d="M341.117 263.787C341.117 273.152 333.526 280.743 324.161 280.743C314.797 280.743 307.205 273.152 307.205 263.787C307.205 254.423 314.797 246.831 324.161 246.831C333.526 246.831 341.117 254.423 341.117 263.787Z" fill="#8BCF00"/>
</g>
</g>
</svg>
